<svg width="36" height="36" xmlns="http://www.w3.org/2000/svg">

 <g>
  <title>background</title>
  <rect fill="none" id="canvas_background" height="38" width="38" y="-1" x="-1"/>
 </g>
 <g>
  <title>Layer 1</title>
  <path fill="#ffffff" fill-rule="nonzero" id="rect4429" d="m18.00075,4.000017c-1.71394,0 -3.26752,0.4446 -4.34375,1.125c-1.07622,0.6804 -1.65625,1.5438 -1.65625,2.4688l0,0.4062l1,0l2.5,0c0.82235,0 1.5,0.6776 1.5,1.5c0,0.8224 -0.67765,1.5 -1.5,1.5l-2.5,0l-1,0l0,1l1,0l2.5,0c0.82235,0 1.5,0.6777 1.5,1.5c0,0.8224 -0.67765,1.5 -1.5,1.5l-2.5,0l-1,0l0,1l1,0l2.5,0c0.82235,0 1.5,0.6777 1.5,1.5c0,0.8224 -0.67765,1.5 -1.5,1.5l-2.5,0l-0.875,0l-0.0312,0c0.20098,0.6954 0.7273,1.347 1.5625,1.875c1.07623,0.6804 2.62981,1.125 4.34375,1.125c1.71392,0 3.23628,-0.4446 4.3125,-1.125c0.83522,-0.528 1.39277,-1.1796 1.59375,-1.875l-0.90625,0l-2.5,0c-0.82235,0 -1.5,-0.6776 -1.5,-1.5c0,-0.8223 0.67765,-1.5 1.5,-1.5l2.5,0l1,0l0,-1l-1,0l-2.5,0c-0.82235,0 -1.5,-0.6776 -1.5,-1.5c0,-0.8223 0.67765,-1.5 1.5,-1.5l2.5,0l1,0l0,-1l-1,0l-2.5,0c-0.82235,0 -1.5,-0.6776 -1.5,-1.5c0,-0.8224 0.67765,-1.5 1.5,-1.5l2.5,0l1,0l0,-0.4062c0,-0.925 -0.61127,-1.7884 -1.6875,-2.4688c-1.07622,-0.6804 -2.59858,-1.125 -4.3125,-1.125l-0.00005,0zm-6,5l0,1l1,0l2.5,0c0.28565,0 0.5,-0.2143 0.5,-0.5c0,-0.2857 -0.21435,-0.5 -0.5,-0.5l-2.5,0l-1,0zm8.5,0c-0.28565,0 -0.5,0.2143 -0.5,0.5c0,0.2857 0.21435,0.5 0.5,0.5l2.5,0l1,0l0,-1l-1,0l-2.5,0zm-12,4c-0.2405,0 -0.45961,0.1691 -0.5,0.4063c-0.002,0.01 0.001,0.021 0,0.031l0,0.031c-0.002,0.023 -0.002,0.04 0,0.062l0,6c0,1.8655 1.18546,3.5173 3,4.6562c1.81454,1.1389 4.28429,1.8125 7,1.8125c2.71572,0 5.15422,-0.6736 6.96875,-1.8125c1.81454,-1.1389 3.03125,-2.7907 3.03125,-4.6562l0,-6.0313l0,-0.031c-0.005,-0.3053 -0.29254,-0.5189 -0.59375,-0.4687l-2.40625,0l0,1l2,0l0,5.5312c0,1.438 -0.9428,2.7646 -2.5625,3.7813c-1.61973,1.0166 -3.89021,1.6875 -6.4375,1.6875c-2.54728,0 -4.84904,-0.6709 -6.46875,-1.6875c-1.61971,-1.0167 -2.53125,-2.3433 -2.53125,-3.7813l0,-5.5312l2,0l0,-1l-2.40625,0c-0.0329,-0.01 -0.0603,-0.001 -0.0937,0l-0.00005,0.0007zm3.5,0l0,1l1,0l2.5,0c0.28565,0 0.5,-0.2143 0.5,-0.5c0,-0.2856 -0.21435,-0.5 -0.5,-0.5l-2.5,0l-1,0zm8.5,0c-0.28565,0 -0.5,0.2144 -0.5,0.5c0,0.2857 0.21435,0.5 0.5,0.5l2.5,0l1,0l0,-1l-1,0l-2.5,0zm-8.5,4l0,0.5938l0.0312,0.4062l0.96875,0l2.5,0c0.28565,0 0.5,-0.2143 0.5,-0.5c0,-0.2856 -0.21435,-0.5 -0.5,-0.5l-2.5,0l-1,0l0.00005,0zm8.5,0c-0.28565,0 -0.5,0.2144 -0.5,0.5c0,0.2857 0.21435,0.5 0.5,0.5l2.5,0l0.96875,0l0.0312,-0.4062l0,-0.5938l-1,0l-2.5,0l0.00005,0zm-3.5,10l0,1l0,2l2,0l0,-2l0,-1l-2,0zm-4,4c-0.28564,0 -0.5,0.2144 -0.5,0.5l0,1c0,0.2856 0.21436,0.5 0.5,0.5l10,0c0.28565,0 0.5,-0.2143 0.5,-0.5l0,-1c0,-0.2856 -0.21435,-0.5 -0.5,-0.5l-3,0l-4,0l-3,0z"/>
 </g>
</svg>