<svg width="100" height="100" xmlns="http://www.w3.org/2000/svg">
 <title/>

 <g>
  <title>background</title>
  <rect fill="none" id="canvas_background" height="402" width="582" y="-1" x="-1"/>
 </g>
 <g>
  <title>Layer 1</title>
  <path fill="#ffffff" id="svg_1" d="m37.3,95c-13.48,0 -14.85,-13 -14.86,-13.14l0,-0.09l-0.33,-50.42l0,-0.09c0.06,-0.26 5,-26.26 28.41,-26.26s27.17,26.05 27.2,26.31s2.9,20.69 -16.1,31.39c-9.34,5.3 -10.1,17.22 -10.11,17.3s-0.68,15 -14.21,15zm-12.87,-13.28c0.1,0.85 1.47,11.28 12.87,11.28c11.62,0 12.2,-12.52 12.22,-13.06s0.84,-13.18 11.12,-19c17.81,-10.03 15.13,-29.15 15.1,-29.34c-0.14,-1.03 -3.54,-24.6 -25.22,-24.6c-21.11,0 -26.09,23 -26.41,24.54l0.32,50.18z"/>
  <path fill="#ffffff" id="svg_2" d="m36,61.4l-0.1,-2c0.44,0 10.67,-0.68 10.67,-9.7s-10.16,-9.17 -10.57,-9.17l-1,0l0,-9.08a12.78,12.78 0 0 1 3.45,-8.63c2.72,-2.82 6.79,-4.26 12.08,-4.26c4.94,0 8.76,1.42 11.35,4.23c4,4.29 3.51,10.21 3.49,10.46l-2,-0.16c0,-0.05 0.38,-5.32 -3,-9c-2.19,-2.37 -5.51,-3.57 -9.86,-3.57c-4.73,0 -8.31,1.23 -10.64,3.64a10.83,10.83 0 0 0 -2.87,7.25l0,7.16c4.51,0.36 11.61,3 11.61,11.13c-0.01,10.93 -12.45,11.69 -12.61,11.7z"/>
 </g>
</svg>