<svg width="101" height="101" xmlns="http://www.w3.org/2000/svg">

 <g>
  <title>background</title>
  <rect fill="none" id="canvas_background" height="103" width="103" y="-1" x="-1"/>
 </g>
 <g>
  <title>Layer 1</title>
  <path fill="#ffffff" id="svg_2" d="m13.7,16.5l30,0c1.1,0 2,-0.9 2,-2s-0.9,-2 -2,-2l-30,0c-1.1,0 -2,0.9 -2,2s0.9,2 2,2z" class="st0"/>
  <path fill="#ffffff" id="svg_3" d="m13.516469,30.016469l30,0c1.1,0 2,-0.9 2,-2s-0.9,-2 -2,-2l-30,0c-1.1,0 -2,0.9 -2,2s0.9,2 2,2z" class="st0"/>
  <path fill="#ffffff" id="svg_4" d="m32.7,40l-19,0c-1.1,0 -2,0.9 -2,2s0.9,2 2,2l19,0c1.1,0 2,-0.9 2,-2s-0.9,-2 -2,-2z" class="st0"/>
  <path fill="#ffffff" id="svg_5" d="m28.7,53.8l-15,0c-1.1,0 -2,0.9 -2,2s0.9,2 2,2l15,0c1.1,0 2,-0.9 2,-2s-0.9,-2 -2,-2z" class="st0"/>
  <path fill="#ffffff" id="svg_6" d="m55.8,37.4l0,-29.3c0,-3.9 -3.2,-7.1 -7.1,-7.1l-40.1,0c-3.9,0 -7.1,3.2 -7.1,7.1l0,54c0,3.9 3.2,7.1 7.1,7.1l35.1,0c3,2.4 6.8,3.8 10.9,3.8c9.8,0 17.8,-8 17.8,-17.8c0.1,-9.5 -7.3,-17.2 -16.6,-17.8zm-50.3,24.7l0,-54c0,-1.7 1.4,-3.1 3.1,-3.1l40.1,0c1.7,0 3.1,1.4 3.1,3.1l0,29.5c-8.5,1.4 -15,8.7 -15,17.6c0,3.7 1.2,7.2 3.1,10.1l-31.3,0c-1.7,-0.1 -3.1,-1.5 -3.1,-3.2zm49.2,6.9c-7.6,0 -13.8,-6.2 -13.8,-13.8s6.1,-13.9 13.8,-13.9c7.6,0 13.8,6.2 13.8,13.8s-6.2,13.9 -13.8,13.9z" class="st0"/>
  <path fill="#ffffff" id="svg_7" d="m59.8,49.2l-7.6,7.6l-2.7,-2.7c-0.8,-0.8 -2,-0.8 -2.8,0s-0.8,2 0,2.8l4.1,4.1c0.4,0.4 0.9,0.6 1.4,0.6s1,-0.2 1.4,-0.6l9,-9c0.8,-0.8 0.8,-2 0,-2.8s-2,-0.7 -2.8,0z" class="st0"/>
 </g>
</svg>